<svg width="20" height="21" viewBox="0 0 20 21" fill="none" xmlns="http://www.w3.org/2000/svg">
<path d="M9.9989 0.0141449C4.4761 0.0141449 -0.00109863 4.49115 -0.00109863 10.0141C-0.00109863 15.5371 4.4761 20.0141 9.9989 20.0141C15.5217 20.0141 19.9989 15.5371 19.9989 10.0141C19.9989 4.49115 15.5217 0.0141449 9.9989 0.0141449ZM9.9989 2.01414C14.4172 2.01414 17.9989 5.59614 17.9989 10.0141C17.9989 14.4321 14.4172 18.0141 9.9989 18.0141C5.5806 18.0141 1.9989 14.4321 1.9989 10.0141C1.9989 5.59614 5.5806 2.01414 9.9989 2.01414ZM9.9989 5.01414C9.4466 5.01414 8.9989 5.46214 8.9989 6.01414C8.9989 6.56614 9.4466 7.01414 9.9989 7.01414C10.5512 7.01414 10.9989 6.56614 10.9989 6.01414C10.9989 5.46214 10.5512 5.01414 9.9989 5.01414ZM9.9989 8.01414C9.4466 8.01414 8.9989 8.46214 8.9989 9.01414V14.0141C8.9989 14.5661 9.4466 15.0141 9.9989 15.0141C10.5512 15.0141 10.9989 14.5661 10.9989 14.0141V9.01414C10.9989 8.46214 10.5512 8.01414 9.9989 8.01414Z" fill="#2A343D"/>
</svg>
